<svg width="18" height="17" viewBox="0 0 18 17" fill="none" xmlns="http://www.w3.org/2000/svg">
<path fill-rule="evenodd" clip-rule="evenodd" d="M4.34687 11.7924C2.69988 10.0549 1.38293 8.89596 0.957938 7.06314C0.641888 5.70016 0.735756 3.20846 2.59115 2.04797C6.68236 -0.511228 8.9748 3.41581 8.9748 3.41581H9.02519C9.02519 3.41581 11.3176 -0.511228 15.4088 2.04797C17.2642 3.20846 17.3581 5.70016 17.042 7.06314C16.6171 8.89596 15.3001 10.0549 13.6531 11.7924C8.99999 16.1818 9.00258 16.1862 8.99999 16.1818C8.99999 16.1818 8.99999 16.1818 4.34687 11.7924Z" fill="url(#paint0_linear_231_15)"/>
<path fill-rule="evenodd" clip-rule="evenodd" d="M4.34687 11.7924C2.69988 10.0549 1.38293 8.89596 0.957938 7.06314C0.641888 5.70016 0.735756 3.20846 2.59115 2.04797C6.68236 -0.511228 8.9748 3.41581 8.9748 3.41581H9.02519C9.02519 3.41581 11.3176 -0.511228 15.4088 2.04797C17.2642 3.20846 17.3581 5.70016 17.042 7.06314C16.6171 8.89596 15.3001 10.0549 13.6531 11.7924C8.99999 16.1818 9.00258 16.1862 8.99999 16.1818C8.99999 16.1818 8.99999 16.1818 4.34687 11.7924Z" stroke="#41BB45"/>
<path fill-rule="evenodd" clip-rule="evenodd" d="M4.34687 11.7924C2.69988 10.0549 1.38293 8.89596 0.957938 7.06314C0.641888 5.70016 0.735756 3.20846 2.59115 2.04797C6.68236 -0.511228 8.9748 3.41581 8.9748 3.41581H9.02519C9.02519 3.41581 11.3176 -0.511228 15.4088 2.04797C17.2642 3.20846 17.3581 5.70016 17.042 7.06314C16.6171 8.89596 15.3001 10.0549 13.6531 11.7924C8.99999 16.1818 9.00258 16.1862 8.99999 16.1818C8.99999 16.1818 8.99999 16.1818 4.34687 11.7924Z" stroke="url(#paint1_linear_231_15)"/>
<path fill-rule="evenodd" clip-rule="evenodd" d="M4.34687 11.7924C2.69988 10.0549 1.38293 8.89596 0.957938 7.06314C0.641888 5.70016 0.735756 3.20846 2.59115 2.04797C6.68236 -0.511228 8.9748 3.41581 8.9748 3.41581H9.02519C9.02519 3.41581 11.3176 -0.511228 15.4088 2.04797C17.2642 3.20846 17.3581 5.70016 17.042 7.06314C16.6171 8.89596 15.3001 10.0549 13.6531 11.7924C8.99999 16.1818 9.00258 16.1862 8.99999 16.1818C8.99999 16.1818 8.99999 16.1818 4.34687 11.7924Z" stroke="url(#paint2_linear_231_15)"/>
<defs>
<linearGradient id="paint0_linear_231_15" x1="7.44033" y1="-6.41205" x2="21.6144" y2="2.46655" gradientUnits="userSpaceOnUse">
<stop stop-color="#D44F4F"/>
<stop offset="1" stop-color="#B43333"/>
</linearGradient>
<linearGradient id="paint1_linear_231_15" x1="7.44033" y1="-6.41205" x2="21.6144" y2="2.46655" gradientUnits="userSpaceOnUse">
<stop stop-color="#D44F4F"/>
<stop offset="1" stop-color="#D44F4F"/>
</linearGradient>
<linearGradient id="paint2_linear_231_15" x1="7.44033" y1="-6.41205" x2="21.6144" y2="2.46655" gradientUnits="userSpaceOnUse">
<stop stop-color="#D44F4F"/>
<stop offset="1" stop-color="#B43333"/>
</linearGradient>
</defs>
</svg>
